<svg width="431" height="421" viewBox="0 0 431 421" fill="none" xmlns="http://www.w3.org/2000/svg">
<g clip-path="url(#clip0_590_3)">
<path d="M381 224.56C381 247.558 383.86 267.336 386.127 287.198C389.345 315.414 387.944 342.985 381.501 369.985C380.896 372.506 380.346 375.06 379.824 377.624C379.323 380.077 379.606 382.583 381.029 383.91C386.86 389.356 391.33 397.365 397.344 402.477C400.204 404.899 402.485 404.592 404.109 400.41C410.952 382.795 419.219 366.368 424.049 347.077C433.657 308.716 433.21 270.555 423.291 232.543C420.685 222.551 418.042 212.543 414.942 202.879C407.534 179.791 407.234 156.101 411.281 131.771C413.355 119.3 415.965 106.96 416.852 94.1344C417.806 80.3569 415.325 67.2298 412.518 54.2771C412.25 53.0505 411.331 52.0672 410.616 51.1367C409.99 50.3225 409.186 49.4872 408.346 50.3913C407.681 51.0944 407.749 52.2998 407.913 53.3572C412.561 83.2435 405.682 109.963 397.544 136.36C392.645 152.221 386.51 167.336 384.057 184.75C382.08 198.797 381.404 212.998 381 224.56Z" fill="#5CBF6F"/>
<path d="M408.388 305.507C408.889 282.361 404.563 260.31 401.219 238.026C397.554 213.627 395.888 189.096 398.495 164.185C399.925 150.592 403.476 138.073 407.505 125.887C414.971 103.296 415.847 80.0185 411.696 55.9952C411.606 55.294 411.487 54.6018 411.338 53.9228C410.838 52.0407 410.24 50.0846 408.549 50.5921C407.058 51.0468 406.933 53.0452 406.947 54.8586C407.019 64.3749 405.893 73.7008 404.663 82.9792C402.85 96.635 401.044 110.291 398.62 123.762C396.521 135.43 393.257 146.347 389.216 156.73C384.182 169.683 380.607 183.82 380.399 198.285C380.042 223.096 378.651 248.234 383.292 272.707C385.255 283.048 385.927 293.236 383.159 303.656C381.59 309.562 382.233 315.98 382.662 322.223C383.378 332.797 383.26 343.138 380.385 353.262C377.753 362.525 377.12 372.237 379.348 382.049C380.585 387.51 382.755 391.634 386.746 392.565C389.846 393.289 394.859 388.335 396.121 383.138C401.323 361.832 406.869 340.632 408.345 317.814C408.614 313.749 408.388 309.609 408.388 305.507Z" fill="#007F42"/>
</g>
<g clip-path="url(#clip1_590_3)">
<path d="M50 209.819C50 235.09 47.1396 256.824 44.8727 278.65C41.6547 309.656 43.0563 339.952 49.4994 369.622C50.1037 372.393 50.6543 375.199 51.1764 378.016C51.6769 380.712 51.3945 383.466 49.9714 384.924C44.1397 390.908 39.6703 399.709 33.6563 405.327C30.7959 407.988 28.5147 407.651 26.8914 403.055C20.0478 383.698 11.7812 365.648 6.95068 344.449C-2.65675 302.295 -2.20982 260.362 7.70869 218.591C10.3152 207.611 12.9576 196.614 16.0576 185.994C23.4661 160.624 23.7664 134.591 19.7189 107.856C17.6451 94.1513 15.0349 80.5919 14.1482 66.498C13.1935 51.3584 15.675 36.9333 18.4817 22.7C18.7499 21.3522 19.6688 20.2716 20.384 19.2491C21.0097 18.3545 21.8142 17.4366 22.6544 18.43C23.3194 19.2027 23.2515 20.5272 23.087 21.6891C18.4388 54.5304 25.3182 83.8918 33.456 112.899C38.3545 130.327 44.4902 146.937 46.943 166.073C48.9202 181.509 49.596 197.114 50 209.819Z" fill="#5CBF6F"/>
<path d="M22.6116 298.769C22.1111 273.334 26.4375 249.103 29.7806 224.616C33.4455 197.805 35.1117 170.849 32.5051 143.474C31.0749 128.538 27.5244 114.781 23.4948 101.39C16.0291 76.5658 15.1531 50.9865 19.3043 24.588C19.3939 23.8174 19.5133 23.0568 19.6618 22.3107C20.1624 20.2425 20.7595 18.0929 22.4508 18.6507C23.9418 19.1503 24.0669 21.3463 24.0526 23.339C23.9811 33.7961 25.1074 44.0441 26.3374 54.2398C28.1502 69.2458 29.9558 84.2518 32.38 99.0545C34.4788 111.876 37.7433 123.873 41.7836 135.283C46.8179 149.516 50.3935 165.051 50.6009 180.946C50.9584 208.21 52.3493 235.834 47.7083 262.726C45.7453 274.09 45.0731 285.285 47.8406 296.735C49.4102 303.224 48.7666 310.277 48.3375 317.138C47.6224 328.757 47.7404 340.121 50.6151 351.246C53.2467 361.424 53.8796 372.096 51.652 382.879C50.4149 388.88 48.2446 393.412 44.2543 394.434C41.1543 395.23 36.1415 389.786 34.8793 384.076C29.6769 360.663 24.1312 337.367 22.6546 312.293C22.3864 307.826 22.6116 303.277 22.6116 298.769Z" fill="#007F42"/>
</g>
<g clip-path="url(#clip2_590_3)">
<path d="M76.141 319.199C72.7109 332.001 68.145 342.577 63.9017 353.29C57.8753 368.508 54.555 384.068 54.1681 400.072C54.1334 401.567 54.0636 403.072 53.9761 404.578C53.8931 406.019 53.3597 407.372 52.3578 407.895C48.2509 410.043 44.5311 413.825 40.3709 415.76C38.3936 416.675 37.1506 416.159 36.8572 413.585C35.6181 402.744 33.3976 392.349 33.5458 380.879C33.8394 358.072 39.7835 336.898 51.0568 317.241C54.0197 312.073 57.0053 306.903 60.1981 301.992C67.8272 290.263 71.5303 277.121 72.8724 262.966C73.5609 255.71 73.9266 248.446 75.3386 241.172C76.8542 233.359 80.214 226.427 83.7317 219.642C84.0661 219 84.732 218.592 85.2748 218.182C85.7497 217.824 86.3288 217.481 86.6687 218.111C86.9396 218.603 86.7214 219.264 86.4708 219.827C79.3871 235.76 79.2885 251.674 79.9491 267.6C80.351 277.17 81.5631 286.512 80.3515 296.577C79.3735 304.695 77.6372 312.702 76.141 319.199Z" fill="#5CBF6F"/>
<path d="M48.5939 360.111C51.7633 347.151 57.4966 335.532 62.709 323.634C68.4186 310.607 73.0187 297.205 75.2617 282.944C76.4809 275.161 76.3422 267.655 75.8831 260.262C75.0346 246.557 78.0116 233.467 83.9399 220.723C84.0952 220.347 84.2659 219.979 84.4511 219.624C85.0146 218.652 85.6437 217.654 86.5235 218.192C87.2981 218.671 87.0707 219.802 86.7922 220.809C85.3324 226.096 84.5778 231.457 83.8888 236.808C82.8762 244.684 81.8596 252.559 81.22 260.424C80.6655 267.236 80.8816 273.808 81.6156 280.199C82.528 288.171 82.4395 296.581 80.3993 304.664C76.9007 318.529 73.9371 332.733 67.6649 345.653C65.0135 351.112 63.1143 356.681 63.1236 362.9C63.1297 366.425 61.8087 369.9 60.6351 373.31C58.654 379.088 57.1783 384.862 57.2924 390.933C57.3977 396.487 56.3067 401.989 53.5847 407.113C52.0712 409.966 50.23 411.933 47.8368 411.847C45.9774 411.781 43.8841 408.264 43.9461 405.18C44.1846 392.533 44.2135 379.893 46.7825 366.968C47.2373 364.665 47.982 362.394 48.5939 360.111Z" fill="#007F42"/>
</g>
<g clip-path="url(#clip3_590_3)">
<path d="M364.731 292.736C368.161 305.537 372.727 316.113 376.97 326.826C382.996 342.045 386.317 357.604 386.703 373.608C386.738 375.103 386.808 376.608 386.895 378.114C386.979 379.556 387.512 380.908 388.514 381.431C392.621 383.579 396.34 387.361 400.501 389.296C402.478 390.211 403.721 389.695 404.014 387.122C405.253 376.28 407.474 365.885 407.326 354.416C407.032 331.608 401.088 310.434 389.815 290.777C386.852 285.61 383.866 280.439 380.673 275.529C373.044 263.799 369.341 250.658 367.999 236.502C367.311 229.246 366.945 221.982 365.533 214.709C364.017 206.895 360.658 199.964 357.14 193.179C356.805 192.536 356.14 192.128 355.597 191.719C355.122 191.36 354.543 191.017 354.203 191.647C353.932 192.139 354.15 192.8 354.401 193.364C361.484 209.296 361.583 225.21 360.922 241.136C360.521 250.706 359.308 260.048 360.52 270.113C361.498 278.232 363.234 286.238 364.731 292.736Z" fill="#5CBF6F"/>
<path d="M392.278 333.647C389.108 320.688 383.375 309.068 378.163 297.17C372.453 284.144 367.853 270.741 365.61 256.48C364.391 248.697 364.529 241.191 364.988 233.798C365.837 220.093 362.86 207.003 356.932 194.26C356.776 193.883 356.606 193.516 356.421 193.16C355.857 192.188 355.228 191.19 354.348 191.728C353.574 192.207 353.801 193.338 354.079 194.346C355.539 199.632 356.294 204.994 356.983 210.344C357.995 218.22 359.012 226.095 359.652 233.96C360.206 240.773 359.99 247.344 359.256 253.735C358.344 261.707 358.432 270.118 360.472 278.201C363.971 292.065 366.934 306.269 373.207 319.189C375.858 324.648 377.757 330.217 377.748 336.436C377.742 339.961 379.063 343.436 380.236 346.847C382.218 352.624 383.693 358.398 383.579 364.469C383.474 370.023 384.565 375.525 387.287 380.65C388.8 383.502 390.642 385.469 393.035 385.383C394.894 385.317 396.988 381.8 396.925 378.717C396.687 366.069 396.658 353.429 394.089 340.504C393.634 338.201 392.89 335.931 392.278 333.647Z" fill="#007F42"/>
</g>
<g clip-path="url(#clip4_590_3)">
<path d="M233.943 396.668C233.943 395.783 233.943 394.899 233.943 394.016C233.936 394.238 233.79 394.454 233.523 394.637C233.256 394.82 232.88 394.961 232.444 395.041C222.772 397.184 212.865 399.056 202.287 399.844C188.341 400.884 174.438 402.093 160.346 402.664C150.447 403.064 140.554 403.228 130.62 402.982C123.628 402.809 116.634 402.695 109.655 402.398C101.566 402.053 93.568 401.455 85.5245 400.988C77.6103 400.53 69.672 400.169 61.7093 399.956C54.6607 399.767 47.6068 399.612 40.5555 399.43C39.9128 399.408 39.2787 399.347 38.668 399.249C36.2816 398.88 35.9473 398.096 37.3036 397.104C37.8752 396.684 38.4981 396.291 39.1425 395.908C33.3748 397.354 28.8178 399.572 25.4121 402.298C23.9965 403.43 24.7434 404.631 26.7847 405.48C30.0851 404.924 33.4342 404.427 36.6349 403.738C40.5286 402.901 44.2928 401.92 48.3375 401.243C53.3772 400.401 58.2982 400.443 62.9604 401.59C65.9885 401.805 68.3938 402.639 70.4458 403.827C72.6369 405.088 74.5473 406.454 76.1461 407.902C78.7186 410.254 77.0225 412.645 72.0448 413.814C68.8387 414.571 65.3549 414.807 61.8711 414.934C50.2466 415.358 38.606 415.69 26.9842 416.13C24.34 416.227 21.6826 416.209 19.0458 416.074C15.0631 415.879 13.0758 414.926 13.3643 413.027C13.3643 413.014 13.3643 413.002 13.3643 412.99C10.7326 416.369 11.6548 417.981 18.7788 418.94C23.6891 419.601 28.7018 419.887 33.755 419.965C43.1926 420.117 52.5251 419.494 61.863 418.95C65.7432 418.725 69.5506 418.364 73.1315 417.579C80.7706 415.899 83.4401 412.836 80.3904 409.118C79.816 408.419 80.1558 408.26 81.6173 408.277C88.9463 408.367 96.278 408.329 103.612 408.422C113.589 408.551 123.604 408.535 133.6 408.481C145.928 408.417 158.245 408.353 170.541 408.895C185.151 409.543 199.787 409.946 214.467 409.758C220.189 409.685 225.84 409.33 231.352 408.533C233.218 408.263 234.049 407.849 234.008 406.842C233.857 403.458 233.943 400.062 233.943 396.668Z" fill="#AA772D"/>
<path d="M38.6493 399.257C39.26 399.355 39.8942 399.416 40.5369 399.438C47.5881 399.62 54.6421 399.775 61.6906 399.963C69.6533 400.176 77.5998 400.538 85.5058 400.995C93.5494 401.461 101.558 402.058 109.636 402.405C116.615 402.703 123.61 402.817 130.602 402.99C140.535 403.236 150.429 403.072 160.327 402.672C174.419 402.102 188.322 400.893 202.268 399.852C212.846 399.064 222.761 397.192 232.425 395.049C232.862 394.968 233.237 394.828 233.504 394.645C233.771 394.462 233.918 394.246 233.925 394.023C233.938 393.954 233.941 393.882 233.941 393.807C233.941 393.14 233.925 392.475 233.922 391.806C233.922 389.883 233.922 387.932 233.922 385.881C233.922 385.535 233.922 385.196 233.922 384.844C234.073 384.062 233.722 383.224 232.002 382.32C229.993 381.264 227.672 380.509 225.199 379.884C227.518 381.473 228.454 383.526 227.356 385.199C226.472 386.537 224.433 387.429 222.233 388.267C216.638 390.401 210.136 391.739 203.56 392.982C192.213 395.13 180.726 397.077 168.614 398.035C163.87 398.411 159.079 398.533 155.209 398.638C144.154 398.532 134.123 397.844 124.111 397.136C114.997 396.495 105.869 395.97 96.6341 395.841C85.1633 395.681 73.7142 395.396 62.2407 395.113C59.1425 395.036 56.0388 394.882 53.0269 394.445C51.1205 394.167 49.5889 393.698 49.2518 392.667C49.0064 391.898 49.7507 391.385 50.7645 390.94C50.4356 391.038 50.112 391.14 49.7992 391.255C45.9487 392.656 42.1628 394.104 39.1131 395.917C38.4687 396.301 37.8458 396.693 37.2741 397.113C35.9286 398.107 36.263 398.89 38.6493 399.257Z" fill="#B78338"/>
<path d="M19.0268 416.081C21.6637 416.216 24.321 416.235 26.9652 416.138C38.587 415.698 50.2276 415.369 61.8521 414.942C65.3359 414.814 68.8198 414.579 72.0259 413.822C77.0035 412.647 78.6996 410.262 76.1272 407.91C74.5283 406.461 72.618 405.096 70.4268 403.835C68.3748 402.646 65.9696 401.813 62.9415 401.598C63.3082 401.689 63.6722 401.784 64.0362 401.887C68.1376 403.06 70.5077 404.887 71.6079 407.048C72.5301 408.879 70.4484 410.584 66.7543 411.295C62.0166 412.209 57.047 412.285 51.7592 412.192C46.8436 412.31 41.696 411.986 36.4918 412.123C30.7915 412.273 25.1181 412.459 19.4744 412.842C16.2926 413.058 14.3026 412.743 13.5907 411.954C13.4829 412.296 13.4011 412.642 13.3453 412.992C13.3453 413.005 13.3453 413.017 13.3453 413.029C13.0568 414.934 15.0468 415.887 19.0268 416.081Z" fill="#B78338"/>
<path d="M49.2623 392.666C49.5967 393.691 51.1283 394.166 53.0374 394.444C56.0385 394.881 59.153 395.035 62.2512 395.112C73.7112 395.395 85.1712 395.679 96.6446 395.84C105.88 395.968 115.008 396.49 124.122 397.134C134.134 397.843 144.151 398.53 155.22 398.637C159.089 398.532 163.881 398.41 168.624 398.034C180.737 397.075 192.224 395.128 203.57 392.981C210.147 391.738 216.648 390.4 222.243 388.265C224.441 387.428 226.479 386.536 227.367 385.198C228.472 383.531 227.536 381.471 225.209 379.883C224.2 379.183 222.902 378.587 221.394 378.132C218.821 377.351 216.115 376.674 213.305 376.107C205.318 374.546 197.06 373.319 188.624 372.442C174.419 370.969 160.127 370.505 145.715 371.613C136.652 372.31 127.934 373.633 119.254 375.019C102.536 377.69 86.4655 381.056 71.3032 385.359C68.4045 386.182 65.4843 386.972 62.4777 387.706C58.797 388.604 54.8845 389.324 51.6244 390.589C51.3278 390.703 51.042 390.82 50.7723 390.939C49.7612 391.388 49.0223 391.898 49.2623 392.666Z" fill="#D9A158"/>
<path d="M19.48 412.847C25.1237 412.463 30.8052 412.278 36.4974 412.128C41.7016 411.991 46.8492 412.315 51.7648 412.197C57.0418 412.285 62.0114 412.209 66.7599 411.3C70.4486 410.589 72.5303 408.884 71.6135 407.053C70.5349 404.892 68.1431 403.065 64.0418 401.893C63.6778 401.789 63.3138 401.694 62.9471 401.603C58.2849 400.456 53.3638 400.413 48.3241 401.255C44.2794 401.932 40.5044 402.914 36.6215 403.751C33.4208 404.44 30.0717 404.937 26.7713 405.493C25.0024 405.791 23.247 406.105 21.5374 406.475C18.3906 407.157 15.3355 407.961 14.0197 409.631C13.2269 410.632 13.1056 411.413 13.6017 411.964C14.3082 412.749 16.2982 413.063 19.48 412.847Z" fill="#D9A158"/>
<g clip-path="url(#clip5_590_3)">
<path d="M88.2764 426.037C94.0991 426.178 99.7456 424.92 105.417 423.876C113.352 422.416 121.314 421.096 129.143 419.1C131.216 418.576 133.237 417.863 135.178 416.971C138.132 415.607 138.77 413.566 136.961 411.266C140.223 412.66 143.209 414.465 145.193 417.633C146.685 420.017 146.071 422.301 143.692 423.822C142.288 424.707 140.755 425.372 139.147 425.794C128.922 428.559 118.545 430.201 109.385 429.978C104.382 429.992 100.845 430.092 97.3326 429.616C92.0891 428.905 86.9927 427.696 82.1346 425.705C83.264 425.901 84.4072 426.008 85.5536 426.027C86.4581 426.055 87.3677 426.037 88.2764 426.037Z" fill="#AA772D"/>
<path d="M81.9782 420.27C88.0599 419.425 93.8277 417.473 99.6203 415.597C105.526 413.686 111.491 412.025 117.5 410.493C119.951 409.868 122.337 409.052 124.152 407.181C125.396 405.901 125.543 404.608 124.512 403.525C124.552 403.542 124.595 403.554 124.635 403.572C128.901 405.352 133.084 407.224 136.363 410.583C136.575 410.8 136.774 411.029 136.959 411.268C138.768 413.568 138.13 415.609 135.176 416.973C133.234 417.865 131.214 418.578 129.141 419.102C121.315 421.1 113.352 422.418 105.415 423.878C99.7436 424.92 94.097 426.178 88.2743 426.039C87.3657 426.039 86.456 426.057 85.5474 426.039C84.401 426.021 83.2579 425.913 82.1284 425.717C79.387 425.222 76.9222 424.07 75.0034 421.63C73.6327 419.886 73.0048 418.233 73.1312 416.56C74.6698 419.571 77.7127 420.863 81.9782 420.27Z" fill="#B78338"/>
<path d="M74.4181 403.906C77.3979 400.6 81.1629 398.657 85.2139 396.976C91.966 394.171 98.7781 393.261 106.047 394.624C112.789 395.887 118.403 399.224 123.868 402.977C124.099 403.137 124.314 403.321 124.508 403.525C125.544 404.605 125.389 405.901 124.148 407.181C122.333 409.054 119.947 409.868 117.496 410.493C111.487 412.025 105.517 413.683 99.6163 415.597C93.8237 417.473 88.0559 419.425 81.9742 420.27C77.7087 420.863 74.6658 419.571 73.1313 416.555C72.5615 415.437 72.1989 414.085 72.0569 412.501C72.0062 411.921 72.0497 411.333 72.0497 410.901C71.7679 408.106 72.6237 405.896 74.4181 403.906Z" fill="#D9A158"/>
</g>
</g>
<g clip-path="url(#clip6_590_3)">
<path d="M241.712 415.496C255.56 415.692 268.99 413.945 282.479 412.494C301.352 410.467 320.289 408.634 338.908 405.861C343.839 405.133 348.644 404.144 353.262 402.904C360.287 401.01 361.805 398.175 357.503 394.98C365.26 396.917 372.362 399.423 377.08 403.823C380.629 407.134 379.17 410.307 373.512 412.42C370.172 413.649 366.526 414.573 362.702 415.159C338.383 418.999 313.702 421.279 291.917 420.97C280.017 420.989 271.605 421.127 263.251 420.467C250.78 419.479 238.659 417.801 227.104 415.034C229.791 415.306 232.509 415.456 235.236 415.482C237.387 415.52 239.551 415.496 241.712 415.496Z" fill="#AA772D"/>
<path d="M226.732 407.486C241.197 406.312 254.915 403.602 268.692 400.996C282.738 398.341 296.924 396.035 311.216 393.906C317.046 393.039 322.721 391.905 327.038 389.307C329.995 387.529 330.345 385.733 327.893 384.229C327.989 384.252 328.09 384.269 328.186 384.294C338.331 386.767 348.282 389.366 356.081 394.032C356.583 394.333 357.056 394.651 357.498 394.983C361.8 398.178 360.282 401.013 353.257 402.907C348.639 404.146 343.834 405.136 338.903 405.863C320.289 408.638 301.352 410.47 282.474 412.497C268.985 413.945 255.555 415.692 241.707 415.499C239.546 415.499 237.382 415.523 235.221 415.499C232.495 415.473 229.776 415.324 227.089 415.051C220.569 414.364 214.707 412.764 210.143 409.375C206.883 406.953 205.39 404.657 205.691 402.334C209.35 406.515 216.587 408.309 226.732 407.486Z" fill="#B78338"/>
<path d="M208.751 384.759C215.838 380.167 224.793 377.468 234.428 375.133C250.487 371.237 266.688 369.974 283.977 371.866C300.011 373.621 313.365 378.255 326.36 383.468C326.912 383.69 327.422 383.946 327.883 384.23C330.347 385.729 329.98 387.529 327.028 389.307C322.711 391.908 317.036 393.039 311.206 393.906C296.914 396.035 282.715 398.338 268.682 400.996C254.905 403.602 241.187 406.312 226.722 407.486C216.577 408.31 209.34 406.515 205.691 402.327C204.335 400.774 203.473 398.896 203.135 396.696C203.015 395.891 203.118 395.074 203.118 394.474C202.448 390.591 204.483 387.522 208.751 384.759Z" fill="#D9A158"/>
</g>
<g clip-path="url(#clip7_590_3)">
<path d="M326.835 401.505C336.434 401.736 345.743 399.675 355.094 397.963C368.176 395.571 381.303 393.408 394.209 390.136C397.627 389.277 400.958 388.109 404.159 386.647C409.029 384.412 410.081 381.067 407.099 377.296C412.476 379.582 417.399 382.539 420.67 387.732C423.129 391.639 422.118 395.382 418.196 397.875C415.881 399.325 413.354 400.416 410.703 401.107C393.845 405.638 376.737 408.329 361.636 407.965C353.387 407.987 347.556 408.15 341.765 407.371C333.12 406.205 324.718 404.225 316.709 400.96C318.571 401.282 320.456 401.458 322.346 401.488C323.837 401.534 325.337 401.505 326.835 401.505Z" fill="#AA772D"/>
<path d="M316.451 392.054C326.478 390.669 335.987 387.47 345.537 384.395C355.273 381.262 365.106 378.541 375.014 376.029C379.055 375.006 382.989 373.668 385.981 370.603C388.031 368.504 388.274 366.385 386.574 364.611C386.641 364.638 386.711 364.658 386.777 364.687C393.81 367.605 400.707 370.672 406.113 376.178C406.461 376.533 406.789 376.908 407.095 377.3C410.078 381.07 409.025 384.415 404.156 386.65C400.955 388.113 397.624 389.281 394.206 390.139C381.303 393.413 368.176 395.574 355.09 397.966C345.74 399.675 336.431 401.736 326.831 401.509C325.333 401.509 323.833 401.537 322.335 401.509C320.445 401.478 318.561 401.302 316.699 400.981C312.179 400.169 308.115 398.282 304.952 394.282C302.692 391.424 301.657 388.715 301.865 385.974C304.402 390.908 309.419 393.025 316.451 392.054Z" fill="#B78338"/>
<path d="M303.987 365.235C308.899 359.816 315.106 356.632 321.785 353.877C332.917 349.28 344.148 347.789 356.132 350.022C367.246 352.092 376.503 357.561 385.511 363.712C385.894 363.974 386.247 364.276 386.567 364.611C388.275 366.38 388.02 368.504 385.974 370.603C382.982 373.671 379.048 375.005 375.006 376.029C365.099 378.541 355.257 381.259 345.53 384.395C335.979 387.47 326.47 390.669 316.444 392.053C309.412 393.025 304.395 390.908 301.865 385.965C300.926 384.133 300.328 381.917 300.094 379.321C300.01 378.371 300.082 377.408 300.082 376.699C299.617 372.117 301.028 368.496 303.987 365.235Z" fill="#D9A158"/>
</g>
<g clip-path="url(#clip8_590_3)">
<path d="M144.197 42.0465C148.918 42.2227 153.497 40.6505 158.095 39.3445C164.529 37.5201 170.985 35.8706 177.332 33.3745C179.013 32.7199 180.652 31.8292 182.226 30.7138C184.621 29.009 185.138 26.4576 183.671 23.582C186.316 25.3254 188.737 27.5808 190.346 31.5411C191.555 34.5209 191.058 37.376 189.129 39.2776C187.991 40.3838 186.748 41.2153 185.444 41.7428C177.153 45.1987 168.74 47.2509 161.313 46.973C157.256 46.9897 154.388 47.1145 151.54 46.5201C147.289 45.631 143.157 44.1205 139.218 41.6309C140.133 41.8758 141.06 42.0104 141.99 42.0336C142.723 42.0683 143.461 42.0465 144.197 42.0465Z" fill="#AA772D"/>
<path d="M139.091 34.8374C144.022 33.7811 148.698 31.3417 153.395 28.9961C158.183 26.6069 163.019 24.5315 167.892 22.6157C169.879 21.8347 171.814 20.8144 173.286 18.4766C174.294 16.876 174.413 15.26 173.577 13.9065C173.61 13.9271 173.644 13.9425 173.677 13.9644C177.136 16.1903 180.528 18.5294 183.187 22.7289C183.358 23 183.519 23.2857 183.67 23.5845C185.136 26.4602 184.619 29.0116 182.224 30.7164C180.65 31.8318 179.012 32.7224 177.331 33.3771C170.985 35.8745 164.529 37.5227 158.093 39.3471C153.495 40.6505 148.917 42.2227 144.196 42.049C143.459 42.049 142.721 42.0709 141.984 42.049C141.055 42.0259 140.128 41.8912 139.212 41.6463C136.99 41.0274 134.991 39.5877 133.435 36.5371C132.324 34.3575 131.815 32.2912 131.917 30.2004C133.165 33.9638 135.632 35.5785 139.091 34.8374Z" fill="#B78338"/>
<path d="M132.961 14.3824C135.377 10.2498 138.429 7.82062 141.714 5.71955C147.189 2.21347 152.712 1.07609 158.606 2.77959C164.072 4.35829 168.624 8.52955 173.055 13.2206C173.243 13.4211 173.417 13.6509 173.574 13.9064C174.414 15.2561 174.289 16.876 173.282 18.4765C171.811 20.8169 169.876 21.8346 167.888 22.6156C163.016 24.5314 158.176 26.6042 153.392 28.996C148.695 31.3416 144.018 33.781 139.087 34.8374C135.629 35.5785 133.161 33.9637 131.917 30.1939C131.455 28.7966 131.161 27.106 131.046 25.1258C131.005 24.4015 131.04 23.6668 131.04 23.1264C130.812 19.6319 131.506 16.8695 132.961 14.3824Z" fill="#D9A158"/>
</g>
<g clip-path="url(#clip9_590_3)">
<path d="M274.288 51.4961C260.44 51.6919 247.01 49.945 233.521 48.4939C214.648 46.4668 195.711 44.634 177.092 41.8606C172.161 41.1332 167.356 40.1435 162.738 38.9042C155.713 37.01 154.195 34.1751 158.497 30.98C150.74 32.9171 143.638 35.4232 138.92 39.8234C135.371 43.1344 136.83 46.3066 142.488 48.4196C145.828 49.6487 149.474 50.5725 153.298 51.1587C177.617 54.9986 202.298 57.2788 224.083 56.97C235.983 56.9886 244.395 57.1272 252.749 56.4668C265.22 55.4789 277.341 53.8006 288.896 51.0343C286.209 51.3064 283.491 51.456 280.764 51.4818C278.613 51.5204 276.449 51.4961 274.288 51.4961Z" fill="#AA772D"/>
<path d="M289.268 43.4861C274.803 42.3124 261.085 39.6019 247.308 36.9957C233.262 34.341 219.076 32.035 204.784 29.9064C198.954 29.0386 193.279 27.9049 188.962 25.3074C186.005 23.5289 185.655 21.7334 188.107 20.2294C188.011 20.2523 187.91 20.2695 187.814 20.2938C177.669 22.767 167.718 25.366 159.919 30.0322C159.417 30.3334 158.944 30.6508 158.502 30.9828C154.2 34.178 155.718 37.0129 162.743 38.9071C167.361 40.1464 172.166 41.1361 177.097 41.8635C195.711 44.6383 214.648 46.4696 233.526 48.4968C247.015 49.945 260.445 51.6919 274.293 51.4989C276.454 51.4989 278.618 51.5232 280.779 51.4989C283.505 51.4732 286.224 51.3236 288.911 51.0515C295.431 50.3638 301.293 48.7641 305.857 45.3746C309.117 42.9528 310.61 40.6569 310.309 38.3338C306.65 42.5154 299.413 44.3095 289.268 43.4861Z" fill="#B78338"/>
<path d="M307.249 20.7585C300.162 16.1666 291.207 13.4676 281.572 11.1331C265.513 7.23741 249.312 5.97366 232.023 7.86644C215.989 9.62055 202.635 14.2553 189.64 19.4676C189.088 19.6903 188.578 19.9457 188.117 20.2296C185.653 21.7292 186.02 23.5291 188.972 25.3075C193.289 27.9079 198.964 29.0387 204.794 29.9065C219.086 32.0351 233.285 34.3382 247.318 36.9958C261.095 39.602 274.813 42.3125 289.278 43.4862C299.423 44.3096 306.66 42.5155 310.309 38.3268C311.665 36.7742 312.527 34.8957 312.865 32.6956C312.985 31.8907 312.882 31.0745 312.882 30.474C313.552 26.5913 311.517 23.5219 307.249 20.7585Z" fill="#D9A158"/>
</g>
<g clip-path="url(#clip10_590_3)">
<path d="M78.8345 59.5053C88.4341 59.7365 97.7433 57.675 107.094 55.9628C120.176 53.5708 133.303 51.4081 146.209 48.1355C149.627 47.2772 152.958 46.1094 156.159 44.647C161.029 42.4118 162.081 39.0666 159.099 35.2964C164.476 37.5821 169.399 40.5393 172.67 45.7316C175.129 49.6386 174.118 53.3818 170.196 55.8751C167.881 57.3255 165.354 58.4156 162.703 59.1072C145.845 63.6383 128.737 66.3289 113.636 65.9646C105.387 65.9865 99.5556 66.1501 93.7651 65.3708C85.1204 64.2051 76.7182 62.2247 68.7089 58.9605C70.571 59.2816 72.4556 59.4581 74.3456 59.4885C75.8368 59.534 77.3365 59.5053 78.8345 59.5053Z" fill="#AA772D"/>
<path d="M68.451 50.0535C78.4776 48.6686 87.9866 45.4702 97.5367 42.3949C107.273 39.2623 117.106 36.5413 127.014 34.0295C131.055 33.0055 134.989 31.6678 137.981 28.6027C140.031 26.5042 140.274 24.3854 138.574 22.6107C138.641 22.6377 138.711 22.658 138.777 22.6867C145.81 25.605 152.707 28.6718 158.113 34.1779C158.461 34.5334 158.789 34.9079 159.095 35.2998C162.078 39.07 161.025 42.4152 156.156 44.6504C152.955 46.1128 149.624 47.2805 146.206 48.1389C133.303 51.4132 120.176 53.5742 107.09 55.9662C97.7399 57.6751 88.4307 59.7365 78.8311 59.5087C77.3331 59.5087 75.8334 59.5374 74.3354 59.5087C72.4454 59.4784 70.5607 59.3018 68.6986 58.9807C64.179 58.1693 60.1154 56.2817 56.952 52.282C54.6921 49.4243 53.657 46.7151 53.8654 43.9739C56.402 48.9081 61.4187 51.0252 68.451 50.0535Z" fill="#B78338"/>
<path d="M55.9866 23.2348C60.8991 17.8165 67.1064 14.6316 73.7851 11.8768C84.9168 7.27997 96.1476 5.78873 108.132 8.02221C119.246 10.0921 128.503 15.561 137.511 21.7116C137.894 21.9744 138.247 22.2758 138.567 22.6107C140.275 24.3803 140.02 26.5041 137.974 28.6026C134.982 31.6711 131.048 33.0055 127.006 34.0294C117.099 36.5413 107.257 39.2589 97.5295 42.3949C87.9795 45.4702 78.4704 48.6685 68.4438 50.0535C61.4115 51.0252 56.3948 48.9081 53.8651 43.9654C52.9257 42.1334 52.3278 39.9168 52.0938 37.3206C52.0101 36.3709 52.0818 35.4077 52.0818 34.6992C51.6172 30.1175 53.0281 26.4957 55.9866 23.2348Z" fill="#D9A158"/>
</g>
<g clip-path="url(#clip11_590_3)">
<path d="M320.835 52.5053C330.434 52.7365 339.743 50.675 349.094 48.9628C362.176 46.5708 375.303 44.4081 388.209 41.1355C391.627 40.2772 394.958 39.1094 398.159 37.647C403.029 35.4118 404.081 32.0666 401.099 28.2964C406.476 30.5821 411.399 33.5393 414.67 38.7316C417.129 42.6386 416.118 46.3818 412.196 48.8751C409.881 50.3255 407.354 51.4156 404.703 52.1072C387.845 56.6383 370.737 59.3289 355.636 58.9646C347.387 58.9865 341.556 59.1501 335.765 58.3708C327.12 57.2051 318.718 55.2247 310.709 51.9605C312.571 52.2816 314.456 52.4581 316.346 52.4885C317.837 52.534 319.337 52.5053 320.835 52.5053Z" fill="#AA772D"/>
<path d="M310.451 43.0535C320.478 41.6686 329.987 38.4702 339.537 35.3949C349.273 32.2623 359.106 29.5413 369.014 27.0295C373.055 26.0055 376.989 24.6678 379.981 21.6027C382.031 19.5042 382.274 17.3854 380.574 15.6107C380.641 15.6377 380.711 15.658 380.777 15.6867C387.81 18.605 394.707 21.6718 400.113 27.1779C400.461 27.5334 400.789 27.9079 401.095 28.2998C404.078 32.07 403.025 35.4152 398.156 37.6504C394.955 39.1128 391.624 40.2805 388.206 41.1389C375.303 44.4132 362.176 46.5742 349.09 48.9662C339.74 50.6751 330.431 52.7365 320.831 52.5087C319.333 52.5087 317.833 52.5374 316.335 52.5087C314.445 52.4784 312.561 52.3018 310.699 51.9807C306.179 51.1693 302.115 49.2817 298.952 45.282C296.692 42.4243 295.657 39.7151 295.865 36.9739C298.402 41.9081 303.419 44.0252 310.451 43.0535Z" fill="#B78338"/>
<path d="M297.987 16.2348C302.899 10.8165 309.106 7.63156 315.785 4.87682C326.917 0.279966 338.148 -1.21127 350.132 1.02221C361.246 3.09207 370.503 8.56104 379.511 14.7116C379.894 14.9744 380.247 15.2758 380.567 15.6107C382.275 17.3803 382.02 19.5041 379.974 21.6026C376.982 24.6711 373.048 26.0055 369.006 27.0294C359.099 29.5413 349.257 32.2589 339.53 35.3949C329.979 38.4702 320.47 41.6685 310.444 43.0535C303.412 44.0252 298.395 41.9081 295.865 36.9654C294.926 35.1334 294.328 32.9168 294.094 30.3206C294.01 29.3709 294.082 28.4077 294.082 27.6992C293.617 23.1175 295.028 19.4957 297.987 16.2348Z" fill="#D9A158"/>
</g>
<g clip-path="url(#clip12_590_3)">
<path d="M27.1973 58.0465C31.9184 58.2227 36.4967 56.6505 41.0952 55.3445C47.5292 53.5201 53.985 51.8706 60.3324 49.3745C62.0135 48.7199 63.6515 47.8292 65.2257 46.7138C67.6207 45.009 68.1382 42.4576 66.6715 39.582C69.316 41.3254 71.737 43.5808 73.3457 47.5411C74.5554 50.5209 74.0581 53.376 72.1293 55.2776C70.9906 56.3838 69.7477 57.2153 68.444 57.7428C60.1535 61.1987 51.7395 63.2509 44.3126 62.973C40.256 62.9897 37.388 63.1145 34.5403 62.5201C30.2887 61.631 26.1565 60.1205 22.2175 57.6309C23.1333 57.8758 24.0602 58.0104 24.9897 58.0336C25.7231 58.0683 26.4606 58.0465 27.1973 58.0465Z" fill="#AA772D"/>
<path d="M22.0905 50.8374C27.0216 49.7811 31.6982 47.3417 36.3949 44.9961C41.1833 42.6069 46.0195 40.5315 50.8918 38.6157C52.8793 37.8347 54.814 36.8144 56.2857 34.4766C57.2938 32.876 57.4131 31.26 56.5772 29.9065C56.61 29.9271 56.6445 29.9425 56.6772 29.9644C60.1357 32.1903 63.5278 34.5294 66.1866 38.7289C66.358 39 66.5192 39.2857 66.6696 39.5845C68.1364 42.4602 67.6189 45.0116 65.2239 46.7164C63.6497 47.8318 62.0116 48.7224 60.3306 49.3771C53.9848 51.8745 47.529 53.5227 41.0934 55.3471C36.4949 56.6505 31.9166 58.2227 27.1955 58.049C26.4588 58.049 25.7212 58.0709 24.9845 58.049C24.055 58.0259 23.1281 57.8912 22.2123 57.6463C19.9895 57.0274 17.9911 55.5877 16.4353 52.5371C15.3239 50.3575 14.8148 48.2912 14.9173 46.2004C16.1648 49.9638 18.632 51.5785 22.0905 50.8374Z" fill="#B78338"/>
<path d="M15.9607 30.3824C18.3767 26.2498 21.4294 23.8206 24.7141 21.7195C30.1887 18.2135 35.712 17.0761 41.6058 18.7796C47.0721 20.3583 51.6243 24.5295 56.0548 29.2206C56.2428 29.4211 56.4168 29.6509 56.5739 29.9064C57.414 31.2561 57.2888 32.8759 56.2824 34.4765C54.8107 36.8169 52.876 37.8346 50.8884 38.6156C46.0161 40.5314 41.1757 42.6042 36.3916 44.996C31.6949 47.3416 27.0183 49.781 22.0872 50.8373C18.6287 51.5784 16.1615 49.9637 14.9173 46.1939C14.4553 44.7966 14.1613 43.106 14.0462 41.1258C14.005 40.4015 14.0403 39.6668 14.0403 39.1264C13.8118 35.6319 14.5057 32.8695 15.9607 30.3824Z" fill="#D9A158"/>
</g>
<defs>
<clipPath id="clip0_590_3">
<rect width="53" height="354" fill="white" transform="matrix(-1 0 0 1 431 50)"/>
</clipPath>
<clipPath id="clip1_590_3">
<rect width="53" height="389" fill="white" transform="translate(0 18)"/>
</clipPath>
<clipPath id="clip2_590_3">
<rect width="31" height="204" fill="white" transform="translate(73.9277 214.464) rotate(15)"/>
</clipPath>
<clipPath id="clip3_590_3">
<rect width="31" height="204" fill="white" transform="matrix(-0.965926 0.258819 0.258819 0.965926 366.944 188)"/>
</clipPath>
<clipPath id="clip4_590_3">
<rect width="222" height="49" fill="white" transform="translate(12 371)"/>
</clipPath>
<clipPath id="clip5_590_3">
<rect width="74" height="36" fill="white" transform="matrix(-1 0 0 1 146 394)"/>
</clipPath>
<clipPath id="clip6_590_3">
<rect width="176" height="50" fill="white" transform="matrix(-1 0 0 1 379 371)"/>
</clipPath>
<clipPath id="clip7_590_3">
<rect width="122" height="59" fill="white" transform="matrix(-1 0 0 1 422 349)"/>
</clipPath>
<clipPath id="clip8_590_3">
<rect width="60" height="45" fill="white" transform="matrix(-1 0 0 1 191 2)"/>
</clipPath>
<clipPath id="clip9_590_3">
<rect width="176" height="50" fill="white" transform="translate(137 7)"/>
</clipPath>
<clipPath id="clip10_590_3">
<rect width="122" height="59" fill="white" transform="matrix(-1 0 0 1 174 7)"/>
</clipPath>
<clipPath id="clip11_590_3">
<rect width="122" height="59" fill="white" transform="matrix(-1 0 0 1 416 0)"/>
</clipPath>
<clipPath id="clip12_590_3">
<rect width="60" height="45" fill="white" transform="matrix(-1 0 0 1 74 18)"/>
</clipPath>
</defs>
</svg>
